<svg xmlns="http://www.w3.org/2000/svg" viewBox="0 0 512 512">
  <defs>
    <linearGradient id="bg" x1="0" y1="0" x2="1" y2="1"><stop offset="0" stop-color="#eaf4e3"/><stop offset="0.58" stop-color="#f9faf4"/><stop offset="1" stop-color="#ffe6a8"/></linearGradient>
    <linearGradient id="leaf" x1="0" y1="0" x2="1" y2="1"><stop offset="0" stop-color="#2f6b3e"/><stop offset="1" stop-color="#79a85d"/></linearGradient>
  </defs>
  <rect x="24" y="24" width="464" height="464" rx="104" fill="url(#bg)"/>
  <rect x="24" y="24" width="464" height="464" rx="104" fill="none" stroke="#2f6b3e" stroke-opacity=".22" stroke-width="10"/>
  <g opacity=".28" stroke="#2f6b3e" stroke-width="10" stroke-linecap="round">
    <path d="M128 384H398"/>
    <path d="M128 384V118"/>
    <path d="M128 315H398" opacity=".45"/>
    <path d="M128 246H398" opacity=".35"/>
    <path d="M128 177H398" opacity=".25"/>
  </g>
  <path d="M178 334C300 328 384 242 386 124C271 133 190 212 178 334Z" fill="url(#leaf)"/>
  <path d="M196 318C245 260 295 214 365 147" fill="none" stroke="#f8fff0" stroke-width="16" stroke-linecap="round"/>
  <path d="M251 261C239 227 246 198 269 170" fill="none" stroke="#f8fff0" stroke-width="10" stroke-linecap="round" opacity=".75"/>
  <path d="M292 222C327 219 350 204 374 178" fill="none" stroke="#f8fff0" stroke-width="10" stroke-linecap="round" opacity=".75"/>
  <circle cx="174" cy="384" r="19" fill="#d59b27"/>
  <circle cx="258" cy="384" r="19" fill="#2f6b3e"/>
  <circle cx="342" cy="384" r="19" fill="#1f5aa6"/>
</svg>